<?xml version="1.0" standalone="no"?>
<!DOCTYPE svg PUBLIC "-//W3C//DTD SVG 20010904//EN"
 "http://www.w3.org/TR/2001/REC-SVG-20010904/DTD/svg10.dtd">
<svg version="1.0" xmlns="http://www.w3.org/2000/svg"
 width="1080.000000pt" height="1080.000000pt" viewBox="0 0 1080.000000 1080.000000"
 preserveAspectRatio="xMidYMid meet">
<metadata>
Created by potrace 1.16, written by Peter Selinger 2001-2019
</metadata>
<g transform="translate(0.000000,1080.000000) scale(0.100000,-0.100000)"
fill="#000000" stroke="none">
<path d="M5548 10098 c-280 -26 -542 -208 -654 -453 -62 -136 -89 -323 -65
 -460 46 -264 212 -480 455 -590 120 -54 188 -69 321 -69 144 -1 243 22 380 89
 201 97 363 290 422 505 22 81 25 298 5 380 -8 30 -36 101 -64 158 -145 298
 -463 473 -800 440z"/>
<path d="M6074 8480 c-189 -60 -273 -92 -353 -136 -269 -148 -474 -441 -549
 -784 -26 -118 -38 -213 -52 -405 -6 -82 -15 -197 -20 -255 -4 -58 -7 -106 -6
 -107 0 -1 68 -9 150 -18 82 -9 154 -17 159 -18 6 -1 23 87 38 198 57 402 109
 695 141 790 54 165 197 280 363 291 l60 4 -46 -14 c-73 -21 -147 -66 -192
 -117 -84 -92 -91 -121 -162 -584 -19 -126 -46 -306 -60 -400 -15 -93 -29 -194
 -32 -223 -3 -29 -10 -55 -15 -58 -5 -3 -57 -1 -116 5 -842 87 -770 77 -818
 119 -23 20 -43 41 -43 46 -1 5 42 6 102 1 56 -4 110 -7 120 -7 23 1 307 133
 307 143 0 4 -16 27 -35 51 -63 78 -538 710 -674 896 -73 100 -137 182 -141
 182 -14 0 -738 -352 -777 -377 l-23 -15 49 -57 c101 -118 671 -879 671 -895 0
 -3 -10 -6 -23 -6 -25 0 -37 15 -343 415 -72 94 -192 252 -268 353 -111 146
 -143 182 -162 182 -25 0 -32 14 -14 25 26 16 150 301 200 460 13 39 25 74 28
 79 2 4 62 -49 133 -120 l128 -128 31 15 30 14 -155 148 c-86 81 -160 147 -166
 147 -5 0 -15 -13 -20 -30 -6 -16 -14 -30 -19 -30 -4 0 -20 16 -35 36 -15 20
 -31 32 -35 27 -4 -4 -20 -46 -35 -93 -53 -162 -147 -415 -186 -497 l-39 -83
 143 -182 c79 -101 204 -262 278 -358 75 -96 176 -227 226 -291 l91 -116 -5
 -61 c-7 -79 19 -135 102 -218 93 -94 202 -140 394 -167 95 -13 95 -13 103 -45
 5 -19 18 -37 31 -42 82 -34 1136 -181 1296 -181 49 0 77 7 125 29 105 50 143
 102 180 243 33 124 181 870 247 1244 6 33 13 71 16 85 l6 25 7 -25 c12 -37 11
 -248 0 -337 -41 -315 -86 -588 -144 -883 -39 -197 -53 -243 -97 -312 -41 -63
 -90 -105 -165 -140 -81 -38 -166 -50 -274 -38 -166 18 -426 51 -510 65 -47 7
 -104 16 -127 19 l-43 6 0 -537 c0 -502 2 -541 19 -579 22 -48 79 -98 138 -120
 l43 -17 0 -91 c0 -50 5 -165 10 -256 6 -91 24 -392 40 -670 17 -278 50 -797
 74 -1155 25 -357 52 -760 61 -895 9 -135 19 -271 24 -303 5 -38 4 -60 -3 -66
 -6 -5 -126 -41 -266 -79 -307 -86 -363 -105 -406 -137 -64 -49 -94 -167 -59
 -234 20 -39 69 -78 113 -91 25 -8 249 -10 712 -8 l675 3 45 30 c24 17 58 50
 75 73 l30 44 3 1904 2 1904 77 36 c94 45 163 108 194 177 l24 52 0 1350 c0
 1266 -1 1356 -18 1444 -54 275 -168 491 -382 722 l-52 57 -149 -48z"/>
</g>
</svg>
